<svg xmlns="http://www.w3.org/2000/svg" width="81" height="81" viewBox="0 0 81 81">
  <g fill="none">
    <path fill="#F6B44B" d="M34,65.4426819 C33.621147,66.1683991 33.1791518,66.8783398 32.7055856,67.5409511 C32.0425928,68.4717623 31.3164578,69.3236911 30.5113952,70.1282906 C26.8017928,73.8357588 21.6557061,76.0917926 15.9097688,75.9971338 C15.8939832,74.8138993 16.004482,73.6464412 16.178123,72.5263126 C13.1472989,74.2617232 9.62712305,75.2398637 5.82280741,75.1767579 C5.77545078,71.374631 6.75415439,67.8564803 8.47477848,64.8274 C7.35400499,65.0009411 6.18587488,65.1113763 5.00195922,65.0798234 C4.90724597,58.1224044 8.25378089,52.0011379 13.4630098,48.2936697 C14.1260025,47.8203759 14.8363519,47.378635 15.5624869,47 C15.5467013,47.0788823 15.5309158,47.1735411 15.5151302,47.2524234 C17.314682,47.4890703 19.0826627,47.9623641 20.7875013,48.6723048 C21.9082748,49.1298221 22.9816916,49.6819982 24.0235374,50.3446096 C25.3337374,51.1649855 26.5650097,52.143126 27.7015687,53.2790311 C28.8381277,54.4149363 29.8010458,55.6455002 30.621894,56.9549464 C31.2848868,57.9961927 31.8531663,59.068992 32.310947,60.1891207 C33.0212964,61.8929784 33.4948627,63.6599419 33.7316458,65.4584584 C33.8421446,65.4742349 33.9210723,65.4584584 34,65.4426819 Z"/>
    <path fill="#FFD05C" d="M34,59.8061911 C33.2409152,62.6648721 31.7550471,65.2812921 29.6231494,67.4131898 C27.2812921,69.7550471 24.3580081,71.3216689 21.1763122,72 L22.1615074,65.6043069 L15.7012113,69.2866756 C14.1991925,70.1588156 12.5679677,70.7725437 10.8559892,71.1440108 C11.2274563,69.448183 11.8573351,67.8169583 12.7133244,66.2987887 L16.3956931,59.8384926 L10,60.8236878 C10.6783311,57.6419919 12.2449529,54.7187079 14.5868102,52.3768506 C16.7187079,50.2449529 19.3351279,48.7590848 22.1938089,48 C23.3405114,48.4683715 24.4387618,49.0336474 25.5047106,49.7119785 C26.8452221,50.551817 28.1049798,51.5531629 29.2678331,52.7160162 C30.4306864,53.8788694 31.4158816,55.1386272 32.2557201,56.4791386 C32.9502019,57.5612382 33.5316285,58.6594886 34,59.8061911 Z"/>
    <path fill="#375D96" d="M31.9473109,81 C32.3611774,80.6499107 32.7909618,80.2679951 33.1889104,79.8542532 C37.184314,75.8600527 39.3650721,70.7519316 39.7471028,65.5165054 C40.224641,59.1830719 38.0438829,52.6745937 33.1889104,47.821083 C28.3339379,42.9675724 21.8394173,40.7874709 15.4881582,41.2648654 C10.267073,41.646781 5.14149547,43.8268825 1.14609187,47.821083 C0.748143304,48.2189118 0.366112681,48.6485668 0,49.0623087 C0.764061247,42.9675724 3.47011149,37.0637939 8.14998663,32.3853279 C12.5274209,28.0092118 17.9554393,25.3517158 23.6063089,24.3969268 C32.4248492,22.9170039 41.8005174,25.5744999 48.6133968,32.3853279 C55.4103583,39.1802428 58.0845727,48.5690011 56.604204,57.384886 C55.6491275,63.0499672 52.990831,68.4763512 48.6133968,72.8365542 C43.9494396,77.5309334 38.0438829,80.2361688 31.9473109,81 Z"/>
    <path fill="#334A5E" d="M56.6089959,56.9664665 C51.5780711,60.4408518 45.9811673,63.1920619 39.9597792,65 C40.4314284,58.7429622 38.2775638,52.3129911 33.4824636,47.518025 C28.6873634,42.7230588 22.2729343,40.5692543 16,41.0408903 C17.8079886,35.0039493 20.5592756,29.4072019 24.033758,24.3921389 C32.7435465,22.9300673 42.0035924,25.5555078 48.7324543,32.2841816 C55.4298729,38.9814131 58.0711084,48.2569214 56.6089959,56.9664665 Z"/>
    <path fill="#F2705B" d="M34.4142752,65 C33.9997547,61.986755 32.9634535,59.0532254 31.2734854,56.4066716 C30.4444444,55.0833947 29.4559725,53.8398332 28.3080697,52.6919303 C27.1601668,51.5440275 25.9166053,50.5555556 24.5933284,49.7265146 C21.9467746,48.0365465 19.013245,47.0002453 16,46.5857248 C20.7510424,23.7392691 38.8145695,5.75545744 61.7247976,1.14790287 C65.4714251,0.398577385 69.3455973,0 73.3313711,0 L81,0 L81,7.66862889 C81,11.6384597 80.6014226,15.5285749 79.8520971,19.2752024 C75.2445426,42.1854305 57.2607309,60.2489576 34.4142752,65 Z"/>
    <path fill="#FFF" d="M63.1927256,17.808998 C58.1136672,12.730334 49.8804163,12.730334 44.8013578,17.808998 C42.2618286,20.34833 40.9839763,23.6801924 41.0001517,27.0120547 C41.016327,30.327743 42.2780039,33.6596054 44.8013578,36.1827633 C47.3247117,38.7059212 50.6406576,39.9836743 53.9566034,39.9998484 C57.3048999,40.0160225 60.6370211,38.7382694 63.1765503,36.1827633 C68.2717841,31.1202734 68.2717841,22.887662 63.1927256,17.808998 Z"/>
    <circle cx="54.5" cy="26.5" r="8.5" fill="#375D96"/>
    <path fill="#41596B" d="M39,41 C30.4105505,44.0183486 21.0022936,53.4266055 18,62 C26.5733945,58.9816514 35.9816514,49.5894495 39,41 Z"/>
    <path fill="#375D96" d="M79.8684864,19 L62,1.13151365 C65.6931348,0.392886683 69.5119934,0 73.4408602,0 L81,0 L81,7.55913978 C81,11.4722911 80.6071133,15.3068652 79.8684864,19 Z"/>
  </g>
</svg>
