<svg xmlns="http://www.w3.org/2000/svg" width="84" height="84" viewBox="0 0 84 84">
  <g fill="none">
    <circle cx="42" cy="42" r="42" fill="#375D96"/>
    <circle cx="42" cy="42" r="34" fill="#FFF"/>
    <path fill="#F2705B" d="M50.3829875,42 L60.2617629,32.1212246 C62.5794124,29.8035751 62.5794124,26.0558866 60.2617629,23.7382371 C57.9441134,21.4205876 54.1964249,21.4205876 51.8787754,23.7382371 L42,33.6170125 L32.1212246,23.7382371 C29.8035751,21.4205876 26.0558866,21.4205876 23.7382371,23.7382371 C21.4205876,26.0558866 21.4205876,29.8035751 23.7382371,32.1212246 L33.6170125,42 L23.7382371,51.8787754 C21.4205876,54.1964249 21.4205876,57.9441134 23.7382371,60.2617629 C26.0558866,62.5794124 29.8035751,62.5794124 32.1212246,60.2617629 L42,50.3829875 L51.8787754,60.2617629 C54.1964249,62.5794124 57.9441134,62.5794124 60.2617629,60.2617629 C62.5794124,57.9441134 62.5794124,54.1964249 60.2617629,51.8787754 L50.3829875,42 Z"/>
  </g>
</svg>
