<svg xmlns="http://www.w3.org/2000/svg" width="76" height="76" viewBox="0 0 76 76">
  <g fill="none">
    <path fill="#375D96" d="M67.2647117,25.3898111 C67.5489077,24.0354894 67.6835269,22.6216371 67.6835269,21.1780195 C67.6835269,9.48025186 58.1554812,0 46.3987404,0 C39.0096438,0 32.4880929,3.75042931 28.6738831,9.45048655 C27.5221413,9.16771608 26.3404842,9.01888952 25.0989963,9.01888952 C16.5581578,9.01888952 9.63274946,15.9095592 9.63274946,24.4075558 C9.63274946,24.6307956 9.66266483,24.8391528 9.66266483,25.04751 C4.06849045,26.8185461 0,32.0274757 0,38.2037779 C0,45.4813967 5.68392049,51.4493417 12.8785672,51.9702347 C13.2076363,52 13.5367054,52 13.8807321,52 L62.1342255,52 C69.7925605,52 76,45.8236978 76,38.2037779 C75.9850423,32.3995421 72.3652824,27.428735 67.2647117,25.3898111 Z"/>
    <g transform="translate(12 25)">
      <polygon fill="#F2705B" points=".089 37.005 13.862 50.858 27.65 37.005 21.038 37.005 21.038 18.171 6.701 18.171 6.701 37.005"/>
      <polygon fill="#FFF" points="50.911 13.906 37.138 .052 23.365 13.906 29.962 13.906 29.962 32.74 44.299 32.74 44.299 13.906"/>
    </g>
  </g>
</svg>
