<svg xmlns="http://www.w3.org/2000/svg" width="73" height="84" viewBox="0 0 73 84">
  <g fill="none">
    <path fill="#F2705B" d="M71.7624217,10.5759085 L37.0005713,0.0767749146 C36.6758191,-0.0255916382 36.3276026,-0.0255916382 36.0028504,0.0767749146 L1.241,10.5759085 C0.504808035,10.7972106 0.000162946428,11.478834 0,12.2523249 L0,50.7492028 C0,66.2214807 23.4364218,79.9858449 35.985578,83.9194109 C36.3249955,84.026863 36.6890178,84.026863 37.0284352,83.9194109 C49.563578,79.9856809 72.9999998,66.2213167 72.9999998,50.7492028 L72.9999998,12.2523249 C73.0003257,11.4798183 72.4973101,10.798523 71.7624217,10.5759085 Z"/>
    <circle cx="36" cy="41" r="19" fill="#375D96" stroke="#FFF" stroke-width="3"/>
    <path fill="#FFD05C" d="M32.8394647,47.9999977 C32.422395,48.0007 32.0221201,47.843378 31.7268861,47.562446 L25.441082,41.5691823 C24.8382388,40.9740278 24.8554755,40.0254607 25.4796804,39.4505333 C26.0887112,38.8897929 27.0541147,38.8897929 27.6629982,39.4505333 L32.8393174,44.3829976 L44.2981996,33.45741 C44.9010428,32.8622555 45.8959108,32.8456805 46.5202631,33.4206079 C47.144468,33.9953949 47.1618521,34.9439619 46.5588615,35.5392569 C46.5461918,35.5517584 46.5333748,35.563979 46.5202631,35.576059 L33.9488022,47.562446 C33.6543048,47.8425352 33.2553558,47.9998572 32.8394647,47.9999977 Z"/>
  </g>
</svg>
