<svg xmlns="http://www.w3.org/2000/svg" width="21" height="21" viewBox="0 0 21 21">
  <path fill="#4DB84C" d="M10.5,0 C4.67727273,0 0,4.67727273 0,10.5 C0,16.3227273 4.67727273,21 10.5,21 C16.3227273,21 21,16.3227273 21,10.5 C21,4.67727273 16.3227273,0 10.5,0 Z M16.5613636,7.20681818 L8.925,15.1295455 C8.82954545,15.225 8.73409091,15.2727273 8.59090909,15.2727273 C8.44772727,15.2727273 8.30454545,15.225 8.25681818,15.1295455 L4.53409091,11.1204545 L4.43863636,11.025 C4.34318182,10.9295455 4.29545455,10.7863636 4.29545455,10.6909091 C4.29545455,10.5954545 4.34318182,10.4522727 4.43863636,10.3568182 L5.10681818,9.68863636 C5.29772727,9.49772727 5.58409091,9.49772727 5.775,9.68863636 L5.82272727,9.73636364 L8.44772727,12.5522727 C8.54318182,12.6477273 8.68636364,12.6477273 8.78181818,12.5522727 L15.1772727,5.91818182 L15.225,5.91818182 C15.4159091,5.72727273 15.7022727,5.72727273 15.8931818,5.91818182 L16.5613636,6.58636364 C16.7522727,6.72954545 16.7522727,7.01590909 16.5613636,7.20681818 Z"/>
</svg>
