<svg xmlns="http://www.w3.org/2000/svg" width="25" height="25" viewBox="0 0 25 25">
  <path fill="#FFF" d="M21.3394303,3.6609773 C16.4578555,-1.22005402 8.54309558,-1.2205975 3.6609773,3.6609773 C-1.2205975,8.54255209 -1.22005402,16.457312 3.6609773,21.3394303 C8.54255209,26.2199181 16.457312,26.2204616 21.3394303,21.3394303 C26.2204616,16.457312 26.2199181,8.54309558 21.3394303,3.6609773 Z M14,18.3333333 C14,19.2538889 13.3285,20 12.5,20 C11.6715,20 11,19.2538889 11,18.3333333 L11,11.6666667 C11,10.7461111 11.6715,10 12.5,10 C13.3285,10 14,10.7461111 14,11.6666667 L14,18.3333333 Z M12.4722659,9 C11.5779825,9 10.9817936,8.33309117 11.0004245,7.50980748 C10.9817936,6.646749 11.5779825,6 12.4903793,6 C13.4032936,6 13.9808516,6.64729386 14,7.50980748 C13.9994825,8.33309117 13.4038111,9 12.4722659,9 Z"/>
</svg>
