<svg xmlns="http://www.w3.org/2000/svg" width="64" height="64" viewBox="0 0 64 64">
  <path fill="#F2705B" d="M31.5722832,0.00290818306 C13.900631,0.239429922 -0.232238566,14.7583864 0.00289186924,32.4307343 C0.239413608,50.0954299 14.7569788,64.2324734 32.4279353,63.997343 C50.0961093,63.7594299 64.2317614,49.2404734 63.996631,31.5695169 C63.7601093,13.9034299 49.2418484,-0.232917904 31.5722832,0.00290818306 Z M31.4776745,51.4783864 L31.3009788,51.4756038 C28.5795875,51.3949082 26.6609788,49.3900386 26.7381962,46.7089951 C26.8140223,44.0738647 28.7792397,42.1608212 31.4108919,42.1608212 L31.5688049,42.1636038 C34.3660223,42.2463864 36.2630658,44.2310821 36.1844571,46.989343 C36.106544,49.6321256 34.1719353,51.4783864 31.4776745,51.4783864 Z M42.924631,28.7590821 C42.284631,29.6682995 40.8773267,30.797343 39.1041093,32.1789082 L37.1514136,33.5270821 C36.0794136,34.3604734 35.4324571,35.1444734 35.1896745,35.9159517 C34.9983701,36.523256 34.9044571,36.6839517 34.8877614,37.9194299 L34.8849788,38.2331691 L27.4289788,38.2331691 L27.450544,37.6022125 C27.5416745,35.0088212 27.6056745,33.483256 28.6804571,32.2227343 C30.366718,30.2429082 34.0863701,27.8477777 34.2442832,27.7462125 C34.7771527,27.3448212 35.226544,26.8877777 35.5611527,26.3994299 C36.3437614,25.3204734 36.6901962,24.4710821 36.6901962,23.6362995 C36.6901962,22.4780386 36.346544,21.4067343 35.6668919,20.4529951 C35.0136745,19.5326473 33.772631,19.0665604 31.9778484,19.0665604 C30.1976745,19.0665604 28.9788919,19.6314299 28.2498484,20.7903864 C27.4999353,21.9820386 27.1208049,23.2335169 27.1208049,24.5121256 L27.1208049,24.8300386 L19.4331527,24.8300386 L19.4470658,24.4982125 C19.6453267,19.789343 21.3260223,16.3987343 24.4404571,14.4202995 C26.3973267,13.1604734 28.8321093,12.5218647 31.6731527,12.5218647 C35.3921093,12.5218647 38.5315875,13.4255169 41.0032397,15.2077777 C43.5075875,17.0136908 44.7778484,19.7183864 44.7778484,23.2467343 C44.7778484,25.2202995 44.154544,27.0742125 42.924631,28.7590821 Z"/>
</svg>
