<svg xmlns="http://www.w3.org/2000/svg" width="77" height="77" viewBox="0 0 77 77">
  <g fill="none">
    <path fill="#F2705B" d="M38.5,0 C17.2340551,0 0,17.2340551 0,38.5 C0,59.7659449 17.2340551,77 38.5,77 C53.0057087,77 65.6318898,68.9816929 72.1950787,57.1285433 C74.6505906,52.7025591 76.2572835,47.7309055 76.8029528,42.4409449 C76.9242126,41.1525591 77,39.8338583 77,38.5 C77,17.2340551 59.7659449,0 38.5,0 Z"/>
    <circle cx="38.5" cy="38.5" r="28.5" fill="#FFF"/>
    <circle cx="38.5" cy="38.5" r="18.5" fill="#F2705B"/>
    <circle cx="38" cy="38" r="8" fill="#FFF"/>
    <path fill="#334A5E" d="M76,42.442462 C75.4651977,47.6855794 73.8905019,52.6132084 71.4838915,57 L61.5157704,53.8751621 L60.4461657,47.370091 L38.2073024,40.3842755 C37.3011096,40.0988336 36.7960185,39.1223218 37.0782753,38.2209262 C37.360532,37.3045074 38.3261473,36.7937166 39.2174846,37.0791586 L61.4563479,44.0799973 L65.987312,39.3176241 L76,42.442462 Z" opacity=".2"/>
    <g transform="translate(53)">
      <polygon fill="#ECB331" points="14.785 9.062 3.169 20.969 .046 11.923 11.662 0"/>
      <polygon fill="#F6B44B" points="12.308 23.862 23.923 11.938 14.785 9.062 3.169 20.969"/>
    </g>
    <path fill="#375D96" d="M73.4591252,6.29870579 L40.3191007,40.4152874 C39.5700872,41.1819522 38.3472081,41.1972855 37.5829086,40.445954 C36.8186092,39.6946226 36.8033232,38.467959 37.5523366,37.7012942 L70.6923611,3.58471255 C71.4413746,2.8180478 72.6642537,2.8027145 73.4285532,3.55404596 C74.1775667,4.30537742 74.1928527,5.53204103 73.4591252,6.29870579 Z"/>
  </g>
</svg>
