<svg xmlns="http://www.w3.org/2000/svg" width="40" height="52" viewBox="0 0 40 52">
  <path fill="#ECB331" d="M37.1624085,20.9997596 L36.1483644,20.9997596 L36.1483644,16.2575786 C36.1483644,7.48655218 29.1823173,0.159611121 20.4755871,0.0032050426 C20.2376866,-0.00106834753 19.7623134,-0.00106834753 19.5245198,0.0032050426 C10.8175758,0.159611121 3.85163563,7.48655218 3.85163563,16.2575786 L3.85163563,20.9997596 L2.83748456,20.9997596 C1.27471893,20.9997596 0,22.6110414 0,24.6010523 L0,48.3858871 C0,50.3736545 1.27471893,52 2.83759148,52 L37.1624085,52 C38.7251741,52 40,50.3736545 40,48.3858871 L40,24.6010523 C40,22.6111482 38.7252811,20.9997596 37.1624085,20.9997596 Z M23.2157731,36.4693251 L23.2157731,43.6562058 C23.2157731,44.4791539 22.5262359,45.1756096 21.7019775,45.1756096 L18.2982363,45.1756096 C17.473871,45.1756096 16.7843339,44.4791539 16.7843339,43.6562058 L16.7843339,36.4693251 C15.9848813,35.6830213 15.5194517,34.595764 15.5194517,33.3930183 C15.5194517,31.1138057 17.2826953,29.155311 19.5246267,29.064822 C19.7622064,29.0552069 20.2381143,29.0552069 20.4756941,29.064822 C22.7176255,29.155311 24.4808691,31.1138057 24.4808691,33.3930183 C24.4806552,34.595764 24.0152256,35.6830213 23.2157731,36.4693251 Z M29.4648041,20.9997596 L20.4755871,20.9997596 L19.5245198,20.9997596 L10.5354098,20.9997596 L10.5354098,16.2575786 C10.5354098,11.032825 14.7849005,6.71274806 20,6.71274806 C25.2150995,6.71274806 29.4648041,11.032825 29.4648041,16.2575786 L29.4648041,20.9997596 Z"/>
</svg>
