<svg xmlns="http://www.w3.org/2000/svg" width="82" height="82" viewBox="0 0 82 82">
  <g fill="none">
    <path fill="#F6B44B" d="M69.4901575,57 L12.5098425,57 C5.6011811,57 0,62.5895619 0,69.4838918 L0,69.5161082 C0,76.4104381 5.6011811,82 12.5098425,82 L69.4901575,82 C76.3988189,82 82,76.4104381 82,69.5161082 L82,69.4838918 C82,62.5895619 76.3988189,57 69.4901575,57 Z"/>
    <path fill="#375D96" d="M58.499966,17 C54.9160249,17 52,19.8917609 52,23.4458805 C52,26.1114701 53.6290642,28.3893376 55.9423353,29.3747981 L55.9423353,57 L61.0575968,57 L61.0575968,29.3747981 C63.3708679,28.3731826 64.9999321,26.095315 64.9999321,23.4458805 C65.0162227,19.8917609 62.1001979,17 58.499966,17 Z"/>
    <g fill="#F2705B" transform="translate(35)">
      <path d="M40.0882353,6.90072874 C30.9321799,-2.21668016 16.0352941,-2.21668016 6.89550173,6.90072874 C2.47197232,11.305587 0.0325259516,17.1841296 0.0325259516,23.4351417 C0.0325259516,29.6861538 2.47197232,35.548502 6.89550173,39.9695547 L10.1480969,36.7306883 C2.78096886,29.3946559 2.78096886,17.4594332 10.1480969,10.1395951 C13.7096886,6.59303644 18.4584775,4.63352227 23.5,4.63352227 C28.5577855,4.63352227 33.2903114,6.59303644 36.8519031,10.1395951 C44.2190311,17.4756275 44.2190311,29.4108502 36.8519031,36.7306883 L40.1044983,39.9695547 C44.5280277,35.5646964 46.967474,29.6861538 46.967474,23.4351417 C46.967474,17.1841296 44.5280277,11.305749 40.0882353,6.90072874 Z"/>
      <path d="M34.1034602,12.8602429 C31.2737024,10.0424291 27.500692,8.48777328 23.5,8.48777328 C19.483045,8.48777328 15.7262976,10.0424291 12.8965398,12.8602429 C10.066782,15.6780567 8.50553633,19.4351417 8.50553633,23.4189474 C8.50553633,27.402753 10.066782,31.1598381 12.8965398,33.9776518 L16.1491349,30.7387854 C14.1813149,28.7792713 13.1079585,26.1881781 13.1079585,23.402753 C13.1079585,20.6335223 14.1813149,18.0262348 16.1491349,16.0667206 C18.116955,14.1072065 20.7190311,13.0383806 23.516263,13.0383806 C26.2972318,13.0383806 28.9155709,14.1072065 30.883391,16.0667206 C32.8512111,18.0262348 33.9245675,20.6173279 33.9245675,23.402753 C33.9245675,26.1719838 32.8512111,28.7792713 30.883391,30.7387854 L34.1359862,33.9776518 C36.9657439,31.1598381 38.5269896,27.402753 38.5269896,23.4189474 C38.5269896,19.4351417 36.933218,15.6782186 34.1034602,12.8602429 Z"/>
    </g>
    <circle cx="9.5" cy="69.5" r="3.5" fill="#F2705B"/>
    <circle cx="19.5" cy="69.5" r="3.5" fill="#F2705B"/>
    <circle cx="29.5" cy="69.5" r="3.5" fill="#F2705B"/>
    <circle cx="70" cy="70" r="7" fill="#FFF"/>
  </g>
</svg>
