<svg xmlns="http://www.w3.org/2000/svg" width="134" height="139" viewBox="0 0 134 139">
  <g fill="none" fill-rule="evenodd">
    <g fill-rule="nonzero">
      <path fill="#F6B44B" d="M74.330497,110.129636 C74.330497,91.7631423 89.1955946,76.8752859 107.531978,76.8752859 C111.391693,76.8752859 113.888942,77.3368541 116.506864,78.1117597 C118.269602,78.8602118 118.944005,77.3856563 119.127974,76.6978649 C120.327419,72.2103452 121,67.6338869 121,63.0232215 C121,62.7144451 120.82787,23.4638126 120.82787,22.9789835 C120.82787,19.1081044 118.613406,19.1172263 117.624798,19.1222433 C110.531044,19.1559944 103.300224,19.159187 95.6937242,16.9630891 C79.8905644,12.3994015 65.8410345,0 60.5,0 C55.3265417,0 44.8949262,12.3998576 29.0913111,16.9630891 C20.1797206,19.5363777 11.6337922,19.0588461 3.6388615,18.6875847 C2.69943323,18.6442557 1.20399822,18.3947716 0.729502706,21.6558516 C0.609740401,22.477735 0,62.5817214 0,63.0232215 C0,102.200879 48.392623,139 60.4990893,139 C64.3729217,139 70.614678,135.883958 79.0153433,129.622229 C80.1346427,128.653939 79.5349205,128.011757 79.2038665,127.470828 C76.1155473,122.421855 74.330497,116.485777 74.330497,110.129636 Z"/>
      <path fill="#F2705B" d="M107.7088,126.956983 C106.588478,128.164331 104.588684,128.351339 103.26446,127.372051 L82.2023138,111.798773 C80.8785457,110.819941 80.6053075,108.942555 81.5956248,107.627107 L84.2983562,104.039729 C85.2886734,102.724281 87.185375,102.445136 88.5132486,103.419407 L102.019607,113.329965 C103.347024,114.30378 105.349555,114.113122 106.469421,112.905318 L125.53223,92.9537515 C126.652096,91.7459478 128.554727,91.6757054 129.760351,92.7977587 L133.047876,95.8574064 C134.253499,96.9794597 134.323747,98.8851258 133.203881,100.092473 L107.7088,126.956983 Z"/>
    </g>
    <text fill="#FFF" font-family="Montserrat-Bold, Montserrat" font-size="28" font-weight="bold">
      <tspan x="28.244" y="67">100%</tspan>
    </text>
  </g>
</svg>
