<svg xmlns="http://www.w3.org/2000/svg" width="123" height="137" viewBox="0 0 123 137">
  <g fill="none">
    <path fill="#375D96" d="M103.895143,99.2995886 C102.616401,98.7487431 101.117124,98.9719895 100.072254,99.8701071 L64.8152394,130.157199 L64.1829821,130.157199 L28.9259672,99.8701071 C27.8802083,98.9711341 26.38271,98.7470324 25.1030781,99.2995886 C23.8243355,99.8512894 23,101.073585 23,102.422472 L23,133.5786 C23,135.468068 24.5926481,137 26.5570031,137 L62.8090896,137 C62.8090896,137 62.8197607,137 62.8259854,137 L62.8419919,137 L66.1740146,137 L69.6483174,137 L102.442997,137 C104.407352,137 106,135.468068 106,133.5786 L106,102.422472 C105.998221,101.073585 105.174775,99.850434 103.895143,99.2995886 Z"/>
    <path fill="#F2705B" d="M39.284016,91 L45.4220937,91 C52.8151493,91 58.9769058,85.6514981 60.0731478,78.2832759 L61.4438887,69.0721144 L65.5552344,69.0721144 L66.9259752,78.2832759 C68.0222172,85.6514981 74.1839738,91 81.5770293,91 L87.715107,91 C95.3589827,91 101.696138,85.2192691 102.457368,77.5540553 L104,62 L100.123689,62 L64.5037191,62 L62.4962809,62 L26.8763114,62 L23,62 L24.5426316,77.5540553 C25.302985,85.220153 31.6401403,91 39.284016,91 Z"/>
    <path fill="#375D96" d="M78.0899533 1.84683453L66.2897196 12.8028903C63.6028037 15.2768384 59.5140187 15.2768384 56.8271028 12.8028903L44.911215 1.96464158C41.2897196-1.33395587 35.5654206-.0380782969 33.6962617 4.43858967L24 28 99 28 89.3037383 4.32078261C87.4357477-.154707278 81.7102804-1.45058485 78.0899533 1.84683453zM1.9676129 48.875C-1.41257686 50.625-.130435915 56 3.48287038 56L61.5288877 56 119.459512 56C123.188211 56 124.353794 50.625 121.090162 48.875L106.870054 41 16.1877216 41 1.9676129 48.875z"/>
  </g>
</svg>
