<svg xmlns="http://www.w3.org/2000/svg" width="155" height="126" viewBox="0 0 155 126">
  <g fill="none" fill-rule="evenodd">
    <path fill="#375D96" fill-rule="nonzero" d="M92.0223056,6.73829899e-07 C66.8144314,-0.00367432587 44.0320769,15.025237 34.1103311,38.2031976 L33.3250946,38.4635976 L33.6295312,39.3770975 C20.5660523,71.6031699 36.0946802,108.319829 68.314044,121.386028 C75.839139,124.437853 83.8833509,126.004453 92.003672,125.99999 C126.790276,126.00524 154.994751,97.8032928 155,63.0094456 C155.005249,28.2155984 126.809172,0.00498817343 92.0223056,6.73829899e-07 Z M141.428427,94.763543 L138.194051,91.5305933 L138.194051,83.9999939 C138.197725,83.6750189 138.125815,83.3537189 137.984094,83.061294 L129.7958,66.7043953 L129.7958,58.7999959 C129.7958,58.098071 129.445435,57.442346 128.861495,57.0527961 L122.562807,52.8527964 C122.069147,52.5230964 121.458962,52.4178339 120.883156,52.5629964 L113.169363,54.4907963 L100.212962,48.9299967 L98.4304333,36.4391977 L103.370704,31.4999981 L113.975595,31.4999981 L117.544852,36.8654977 C117.867135,37.3479727 118.374966,37.6758351 118.94736,37.7705976 L131.544736,39.8705975 C131.88224,39.9272974 132.228143,39.8997349 132.552526,39.7907975 L144.154709,35.9225978 C153.88592,54.6007838 152.845061,77.0657944 141.428427,94.763543 Z M132.768781,20.693399 L129.354892,22.9697988 L119.837574,21.065099 L113.66276,19.0091991 C113.284839,18.8808366 112.878049,18.8645616 112.491204,18.9629991 L104.685031,20.913899 L101.262743,19.7735991 L103.799015,14.6999995 L110.899736,14.6999995 C111.225431,14.700262 111.546664,14.6249245 111.838241,14.4794995 L119.102727,10.8464998 C124.10546,13.4583746 128.707702,16.7742743 132.768781,20.693399 Z M69.0071621,8.88929996 L74.0461125,12.2492997 C74.2938609,12.4141497 74.5736276,12.5243997 74.8670415,12.5726997 L85.0415222,14.2694995 L84.0484291,17.2409993 L78.7470333,19.0112991 C78.2722697,19.1693241 77.8694161,19.4916741 77.6111699,19.9205991 L71.581226,29.9711983 L61.8959434,35.7839978 L47.6189173,37.8230976 C46.5840953,37.9693101 45.8146056,38.8547225 45.8132934,39.8999974 L45.8132934,46.1999969 C45.8132934,46.7570219 46.0347972,47.2909469 46.4284652,47.6846968 L50.0124187,51.2693965 L50.0124187,54.8771962 L41.278238,49.0517967 L38.1099979,39.5450975 C44.1378424,25.7690986 55.1860035,14.8070995 69.0071621,8.88929996 Z M63.0297072,77.7419944 L53.539684,75.8414945 L50.0124187,68.8043951 L50.0124187,63.8693955 L57.8353892,56.0447961 L60.7306861,61.8386957 C61.0862995,62.5505956 61.8140604,63.0002581 62.6097947,62.9999956 L76.1183809,62.9999956 L81.8060961,72.4814948 C82.1855921,73.1133323 82.8684748,73.4997322 83.6054213,73.4999947 L89.4422055,73.4999947 L87.9725117,80.8646941 L80.0235674,88.8152935 C79.6291121,89.208781 79.4070833,89.7427059 79.406296,90.2999934 L79.406296,95.549993 L71.8478704,101.219992 C71.3193055,101.61663 71.0080453,102.239017 71.0080453,102.899992 L71.0080453,110.485192 L68.3961894,109.619992 L64.7093573,100.396793 L64.7093573,79.7999942 C64.7096198,78.8019693 64.0073161,77.9414944 63.0297072,77.7419944 Z"/>
    <circle cx="36.5" cy="58.5" r="36.5" fill="#FFF"/>
    <path fill="#ECB331" fill-rule="nonzero" d="M36.2333895,24.2712464 L35.2446471,24.2712464 L35.2446471,16.1152156 C35.2446471,7.42100744 28.4526728,0.158211046 19.9635668,0.00321957502 C19.7318112,-0.00107319167 19.2680776,-0.00107319167 19.036322,0.00321957502 C10.5471048,0.158098078 3.7552417,7.42089448 3.7552417,16.1151026 L3.7552417,16.2961896 C3.7552417,18.1242304 5.21405658,19.6061387 7.01361004,19.6061387 C8.8131635,19.6061387 10.2718672,18.1242304 10.2718672,16.2961896 L10.2718672,16.1151026 C10.2718672,10.9361056 14.4151105,6.65384485 19.4998332,6.65384485 C24.5845559,6.65384485 28.7279104,10.9361056 28.7279104,16.1151026 L28.7279104,24.2711334 L2.76661049,24.2711334 C1.24285067,24.2711334 0,25.8683815 0,27.8411337 L0,51.4175732 C0,53.3877272 1.24285067,55 2.76661049,55 L36.2333895,55 C37.7572605,55 39,53.3878402 39,51.4175732 L39,27.8410208 C39.0001112,25.8682685 37.7572605,24.2712464 36.2333895,24.2712464 Z M22.6353177,39.6053479 L22.6353177,46.7293072 C22.6353177,47.5451588 21.9629595,48.2353905 21.1592657,48.2353905 L17.8407343,48.2353905 C17.0369293,48.2353905 16.3646823,47.5451588 16.3646823,46.7293072 L16.3646823,39.6053479 C15.5852317,38.8258718 15.1313955,37.7481615 15.1313955,36.556015 C15.1313955,34.296777 16.8505462,32.3553168 19.0364332,32.2658465 C19.2680776,32.2562443 19.7320336,32.2562443 19.9635668,32.2658465 C22.1494538,32.3553168 23.8686045,34.296777 23.8686045,36.556015 C23.8686045,37.7479355 23.4148795,38.8257589 22.6353177,39.6053479 Z" transform="translate(19 28)"/>
  </g>
</svg>
