<svg xmlns="http://www.w3.org/2000/svg" width="16" height="15" viewBox="0 0 16 15">
  <g fill="#F2705B">
    <path d="M.8 7.89473684L.8 13.9849624C.8 14.5452632 1.27893333 15 1.86666667 15L7.2 15 7.2 7.89473684.8 7.89473684zM15 4.05175333L11.836 4.05175333C12.063 3.89398865 12.258 3.73724182 12.394 3.59678036 13.201 2.77131487 13.201 1.42777055 12.394.602305056 11.61-.201785866 10.244-.199750193 9.461.602305056 9.027 1.04506398 7.877 2.84765262 8.036 4.05175333L7.964 4.05175333C8.122 2.84765262 6.972 1.04506398 6.539.602305056 5.755-.199750193 4.389-.199750193 3.606.602305056 2.8 1.42777055 2.8 2.77131487 3.605 3.59678036 3.742 3.73724182 3.937 3.89398865 4.164 4.05175333L1 4.05175333C.449 4.05175333 0 4.50876197 0 5.06958994L0 6.59634485C0 6.87726776.224 7.10526316.5 7.10526316L7 7.10526316 7 5.06958994 9 5.06958994 9 7.10526316 15.5 7.10526316C15.776 7.10526316 16 6.87726776 16 6.59634485L16 5.06958994C16 4.50876197 15.552 4.05175333 15 4.05175333zM6.941 4.01816472C6.941 4.01816472 6.899 4.05175333 6.756 4.05175333 6.065 4.05175333 4.746 3.32094664 4.315 2.87920555 3.896 2.4496785 3.896 1.74940692 4.315 1.31987987 4.518 1.1122412 4.787.998243497 5.073.998243497 5.358.998243497 5.627 1.1122412 5.83 1.31987987 6.504 2.00997309 7.174 3.7728661 6.941 4.01816472zM9.243 4.05175333C9.101 4.05175333 9.059 4.01918256 9.059 4.01816472 8.826 3.7728661 9.496 2.00997309 10.17 1.31987987 10.573.905620366 11.278.903584693 11.685 1.31987987 12.105 1.74940692 12.105 2.4496785 11.685 2.87920555 11.254 3.32094664 9.935 4.05175333 9.243 4.05175333zM8.8 7.89473684L8.8 15 14.1333333 15C14.7221333 15 15.2 14.5452632 15.2 13.9849624L15.2 7.89473684 8.8 7.89473684z"/>
  </g>
</svg>
