<svg xmlns="http://www.w3.org/2000/svg" width="220" height="37" viewBox="0 0 220 37">
  <g fill="none" fill-rule="evenodd">
    <g fill-rule="nonzero">
      <path fill="#375D96" d="M27.4838774,26.5335294 C27.1448159,26.3852585 26.7472794,26.4453496 26.4702299,26.6870957 L17.1217544,34.8394647 L16.9541099,34.8394647 L7.60563445,26.6870957 C7.32834916,26.4451194 6.93128417,26.384798 6.59198695,26.5335294 C6.25292552,26.6820306 6.03435115,27.0110355 6.03435115,27.3741151 L6.03435115,35.7604022 C6.03435115,36.2689899 6.45664532,36.6813397 6.97749839,36.6813397 L16.5898193,36.6813397 C16.5898193,36.6813397 16.5926488,36.6813397 16.5942993,36.6813397 L16.5985434,36.6813397 L17.4820366,36.6813397 L18.4032557,36.6813397 L27.0988375,36.6813397 C27.6196906,36.6813397 28.0419847,36.2689899 28.0419847,35.7604022 L28.0419847,27.3741151 C28.0415132,27.0110355 27.8231746,26.6818003 27.4838774,26.5335294 Z"/>
      <path fill="#F2705B" d="M10.3873444,24.3366581 L12.0281565,24.3366581 C14.0044455,24.3366581 15.6515874,22.9055623 15.9446314,20.9340512 L16.3110536,18.4694257 L17.410086,18.4694257 L17.7765082,20.9340512 C18.0695523,22.9055623 19.7166941,24.3366581 21.6929831,24.3366581 L23.3337952,24.3366581 C25.3771326,24.3366581 27.0711616,22.7899111 27.2746513,20.738934 L27.6870229,16.5771439 L26.6508192,16.5771439 L17.1289981,16.5771439 L16.5923759,16.5771439 L7.07055484,16.5771439 L6.03435115,16.5771439 L6.4467227,20.738934 C6.64997804,22.7901476 8.34400698,24.3366581 10.3873444,24.3366581 Z"/>
      <path fill="#375D96" d="M20.7252151.488541092L17.5977028 3.3867344C16.8855675 4.04116514 15.8018834 4.04116514 15.0897482 3.3867344L11.9315831.519704461C10.9717486-.352869867 9.45459085-.0100728097 8.95919241 1.17413521L6.38931298 7.40680898 26.2671756 7.40680898 23.6972961 1.14297184C23.2022073-.0409245449 21.68474-.383721602 20.7252151.488541092zM.522401043 12.9707333C-.375039025 13.4233717-.0346307233 14.813618.924701762 14.813618L16.335914 14.813618 31.7164894 14.813618C32.7064586 14.813618 33.0159207 13.4233717 32.1494269 12.9707333L28.3739893 10.9338609 4.29783857 10.9338609.522401043 12.9707333z"/>
    </g>
    <g transform="translate(33 16)">
      <path fill="#F2705B" d="M0,0.395833333 L5.04209682,0.395833333 L9.52111685,13.5650559 L14.0257313,0.395833333 L18.8374785,0.395833333 L11.8246129,18.6041667 L6.96167683,18.6041667 L0,0.395833333 Z M28.4097841,0.395833333 C30.6962286,0.395833333 32.470756,0.954285904 33.7334194,2.0712078 C34.9960828,3.18812969 35.627405,4.75958925 35.627405,6.78563362 C35.627405,8.93289432 34.9960828,10.5995938 33.7334194,11.7857822 C32.470756,12.9719706 30.6962286,13.5650559 28.4097841,13.5650559 L25.2104841,13.5650559 L25.2104841,18.6041667 L20.5267089,18.6041667 L20.5267089,0.395833333 L28.4097841,0.395833333 Z M28.1794345,9.77273538 C29.1349636,9.77273538 29.8729281,9.53030636 30.3933501,9.04544104 C30.9137722,8.56057572 31.1739794,7.85926319 31.1739794,6.94148241 C31.1739794,6.05833486 30.9137722,5.37866778 30.3933501,4.90246077 C29.8729281,4.42625376 29.1349636,4.18815383 28.1794345,4.18815383 L25.2104841,4.18815383 L25.2104841,9.77273538 L28.1794345,9.77273538 Z M50.1906186,0.395833333 L54.5416667,0.395833333 L54.5416667,18.6041667 L50.4465626,18.6041667 L42.3075434,7.72072634 L42.3075434,18.6041667 L37.930901,18.6041667 L37.930901,0.395833333 L42.0515994,0.395833333 L50.216213,11.3571981 L50.1906186,0.395833333 Z"/>
      <path fill="#375D96" d="M59.9958333,0.366391185 L64.6788401,0.366391185 L64.6788401,18.7121212 L59.9958333,18.7121212 L59.9958333,0.366391185 Z M80.4168136,0.366391185 L84.7671477,0.366391185 L84.7671477,18.7121212 L80.6727156,18.7121212 L72.5350317,7.74655647 L72.5350317,18.7121212 L68.1591074,18.7121212 L68.1591074,0.366391185 L72.2791297,0.366391185 L80.4424038,11.4104683 L80.4168136,0.366391185 Z M86.4816912,0.366391185 L91.5229607,0.366391185 L96.0012459,13.6349862 L100.505121,0.366391185 L105.316079,0.366391185 L98.304364,18.7121212 L93.4422258,18.7121212 L86.4816912,0.366391185 Z M107.005032,0.366391185 L111.688039,0.366391185 L111.688039,18.7121212 L107.005032,18.7121212 L107.005032,0.366391185 Z M127.528373,5.88842975 C126.573001,5.3126693 125.553668,4.84159963 124.470344,4.47520661 C123.38702,4.1088136 122.478577,3.92561983 121.744988,3.92561983 C121.16494,3.92561983 120.708586,4.03466374 120.375912,4.25275482 C120.043238,4.4708459 119.876903,4.7892541 119.876903,5.20798898 C119.876903,5.60927657 120.021913,5.9451318 120.311937,6.21556474 C120.60196,6.48599768 120.96022,6.70408549 121.386725,6.86983471 C121.813231,7.03558393 122.444449,7.24930999 123.2804,7.51101928 C124.525796,7.8774123 125.553659,8.24379982 126.364019,8.61019284 C127.17438,8.97658585 127.869573,9.5392524 128.449621,10.2982094 C129.029668,11.0571663 129.319687,12.047285 129.319687,13.268595 C129.319687,14.4899051 129.004078,15.5323648 128.37285,16.3960055 C127.741622,17.2596462 126.875829,17.9095479 125.775445,18.34573 C124.67506,18.7819122 123.451008,19 122.103251,19 C120.619012,19 119.13906,18.7339329 117.663351,18.2017906 C116.187642,17.6696484 114.91241,16.9412351 113.837616,16.0165289 L115.65452,12.2741047 C116.558712,13.0941271 117.629224,13.7658376 118.86609,14.2892562 C120.102956,14.8126748 121.199059,15.0743802 122.154431,15.0743802 C122.8539,15.0743802 123.404084,14.9435275 123.804999,14.6818182 C124.205914,14.4201089 124.406369,14.0362743 124.406369,13.530303 C124.406369,13.1115682 124.257094,12.7626277 123.95854,12.4834711 C123.659986,12.2043145 123.284667,11.9818649 122.832571,11.8161157 C122.380476,11.6503665 121.744992,11.4540875 120.926101,11.2272727 C119.697766,10.878327 118.682698,10.5250247 117.880868,10.1673554 C117.079037,9.809686 116.392374,9.26882823 115.820856,8.54476584 C115.249339,7.82070345 114.963585,6.85675533 114.963585,5.65289256 C114.963585,4.51881894 115.257869,3.52433853 115.846447,2.66942149 C116.435024,1.81450445 117.270962,1.15587926 118.354286,0.693526171 C119.43761,0.231173079 120.695783,0 122.128841,0 C123.425418,0 124.704915,0.187555517 125.967371,0.562672176 C127.229827,0.937788836 128.338725,1.4393908 129.294097,2.06749311 L127.528373,5.88842975 Z M131.699576,0.366391185 L136.382583,0.366391185 L136.382583,18.7121212 L131.699576,18.7121212 L131.699576,0.366391185 Z M148.384387,0.366391185 C149.732144,0.366391185 150.905017,0.553946701 151.90304,0.929063361 C152.901062,1.30418002 153.673026,1.84067603 154.218953,2.53856749 C154.76488,3.23645895 155.037839,4.05646912 155.037839,4.99862259 C155.037839,5.95822335 154.760615,6.79568054 154.206158,7.51101928 C153.651701,8.22635803 152.896797,8.71487472 151.941425,8.97658402 C153.08446,9.20339875 153.984373,9.735533 154.641191,10.5730028 C155.29801,11.4104725 155.626414,12.4223999 155.626414,13.6088154 C155.626414,14.6382053 155.344924,15.5410889 154.781937,16.3174931 C154.21895,17.0938974 153.417132,17.6870962 152.376458,18.0971074 C151.335785,18.5071187 150.115998,18.7121212 148.71706,18.7121212 L139.86285,18.7121212 L139.86285,0.366391185 L148.384387,0.366391185 Z M148.128485,7.66804408 C148.776773,7.66804408 149.288572,7.5066591 149.663897,7.1838843 C150.039222,6.8611095 150.226881,6.41184861 150.226881,5.83608815 C150.226881,5.27777499 150.039222,4.84596112 149.663897,4.54063361 C149.288572,4.2353061 148.776773,4.09136814 148.128485,4.10881543 L144.545857,4.10881543 L144.545857,7.66804408 L148.128485,7.66804408 Z M148.128485,14.9958678 C148.947375,14.9958678 149.595654,14.8213975 150.07334,14.4724518 C150.551026,14.1235061 150.789866,13.6349894 150.789866,13.0068871 C150.789866,12.4311266 150.551026,11.9731422 150.07334,11.6329201 C149.595654,11.292698 148.947375,11.131313 148.128485,11.1487603 L144.545857,11.1487603 L144.545857,14.9958678 L148.128485,14.9958678 Z M158.185434,0.366391185 L162.868441,0.366391185 L162.868441,14.6294766 L170.46873,14.6294766 L170.46873,18.7121212 L158.185434,18.7121212 L158.185434,0.366391185 Z M172.592717,0.366391185 L186.744098,0.366391185 L186.744098,4.18732782 L177.275724,4.18732782 L177.275724,7.61570248 L185.822851,7.61570248 L185.822851,11.4104683 L177.275724,11.4366391 L177.275724,14.8911846 L187,14.8911846 L187,18.7121212 L172.592717,18.7121212 L172.592717,0.366391185 Z"/>
    </g>
  </g>
</svg>
